<svg width="12" height="6" viewBox="0 0 12 6" fill="none" xmlns="http://www.w3.org/2000/svg">
<path d="M5.99757 4.27535L10.1912 0.216563C10.3338 0.0785822 10.513 0.00799743 10.7288 0.00480866C10.9446 0.00160328 11.1271 0.0721881 11.2762 0.216563C11.4254 0.360922 11.5 0.535938 11.5 0.741614C11.5 0.94729 11.4254 1.12231 11.2762 1.26667L6.64897 5.74512C6.55262 5.83839 6.45098 5.90419 6.34406 5.9425C6.23715 5.98083 6.12165 6 5.99757 6C5.87349 6 5.75799 5.98083 5.65108 5.9425C5.54416 5.90419 5.44252 5.83839 5.34617 5.74512L0.718898 1.26667C0.576332 1.1287 0.503402 0.955278 0.500107 0.746397C0.496796 0.537532 0.569726 0.360922 0.718898 0.216563C0.868053 0.0721881 1.04889 0 1.2614 0C1.47391 0 1.65474 0.0721881 1.80389 0.216563L5.99757 4.27535Z" fill="#51606F"/>
</svg>
